<?xml version="1.0" encoding="utf-8"?>
<!-- Generator: Adobe Illustrator 22.1.0, SVG Export Plug-In . SVG Version: 6.00 Build 0)  -->
<svg version="1.1" id="Слой_1" xmlns="http://www.w3.org/2000/svg" xmlns:xlink="http://www.w3.org/1999/xlink" x="0px" y="0px"
	 viewBox="0 0 841.9 677.5" style="enable-background:new 0 0 841.9 677.5;" xml:space="preserve">
<style type="text/css">
	.st0{fill:#006838;}
</style>
<g>
	<path class="st0" d="M853.2,517.4c-3.4,6.7,16.2,32.4,20.2,37.6c7,9,15.5,13.4,15.6,25.5c0.4,31.3-7.3,65.1-14.2,95.5
		c-0.8,3.7-1.9,7.8-5.1,9.9c-2.4,1.6-5.4,1.7-8.3,1.7c-273.4,4.6-546.9,7.2-820.4,7.7c-20.2,0-42-0.5-57.8-12.9
		c-9.6-7.5-15.7-18.5-19.9-30c-4.6-12.6-7.1-26.2-7.2-39.6c0-12.8,11.8-17.1,21.7-23.9c10.8-7.5,21.9-14.7,33.1-21.5
		c8.7-5.3,26.5-11,32.8-18.7c-5.7,7-7.9,16.8-5.7,25.5c8-10,16.1-19.9,24.1-29.9c1.4,11.5,1.8,23.2,1.1,34.7c4-10,10.4-19,18.5-26
		c4.3,7.5,8.6,15,12.8,22.6c0.5-10.2,14.2-15.3,23.6-11.4s15.4,13.3,20.6,22.1c11.2-24.4,28.7-45.9,50.4-61.7
		c4.8,22.8,9.5,45.6,14.3,68.4c2.1-11,6.1-21.5,11.9-31.1c7.5,9.7,15,19.4,22.4,29.2c5.9-8.4,11.9-16.7,17.8-25.1
		c6.9,5.3,13.7,10.6,20.6,15.9c4.1-2.9,8.1-5.8,12.2-8.7c4.8,3.5,9.7,6.9,14.5,10.4c5.9-13.9,8-29.4,6.1-44.4
		c8.1,8.6,13.4,19.8,15,31.6c6.7-13.3,11.4-27.5,14.1-42c6.3,16.7,15.1,32.5,25.9,46.6c5.9-13.6,14-26.3,23.9-37.3
		c2.6,9.1,5.3,18.3,7.9,27.4c5.5-7.1,10.9-14.2,16.4-21.3c8.2,10.8,13.5,23.8,15.3,37.2c8.9-22.4,27.3-40.9,49.8-49.7
		c-6.7,10.1-9.3,22.7-7.1,34.6c3.3-7.4,7.9-14.2,13.7-20c5.4,6.8,10.8,13.5,16.2,20.3c8-8.3,24.6-3.9,27.6,7.2
		c5.6-8.1,8.4-18.1,7.9-27.9c16.7,8.9,31.1,21.9,41.6,37.6c3.2-15.6,11.4-30.2,23-41.2c1.6,5.5,3.2,11.1,4.9,16.6
		c5.4-2.5,10.8-5.1,16.2-7.6c3.5,2.8,5.9,6.9,6.7,11.3c10.6-11.1,23.8-19.6,38.2-24.7c-7,7.4-11,17.7-10.9,27.9
		c3.6-3.6,8.1-6.4,13-7.9c3.4,4.9,6.8,9.9,10.3,14.8c4.2-2.8,8.4-5.6,12.5-8.3c4.6,2.8,8.5,6.8,11.3,11.4
		c3.2-12.1,6.4-24.2,9.6-36.3c7.4,11.2,13.1,23.5,16.8,36.4c10.9-11.7,21.7-23.3,32.6-35c-4.7,13.5-5.8,28.2-3.3,42.2
		c11.5-13.8,20.5-29.6,26.5-46.5c0.7,14.1,3.5,28,8.3,41.3c4.7-10.2,9.3-20.4,14-30.5c0.6,5.1,1.2,10.2,1.8,15.3
		c5.3-1.3,10.2-4.3,13.8-8.4c2.5,3.2,4.9,6.3,7.4,9.5C837.6,548.2,845.4,532.8,853.2,517.4z"/>
	<g>
		<path class="st0" d="M850.8,516.7c-1.5,3.6,0.6,8.1,2.1,11.4c2.6,5.7,6.1,10.9,9.6,16c2.7,4,5.6,7.9,8.5,11.7
			c4.3,5.6,10.6,10.2,13.7,16.6c2.1,4.2,1.9,8.8,1.8,13.4c-0.1,5.5-0.4,11.1-0.9,16.6c-1,11-2.7,22-4.7,32.9
			c-1.9,10.4-4.2,20.8-6.5,31.1c-1,4.3-1.6,8.9-3.1,13.1c-2.6,6.7-9.9,5.6-15.8,5.7c-90.5,1.5-181,2.8-271.5,3.9
			c-90.2,1.1-180.3,1.9-270.5,2.5c-90.5,0.6-181,1.1-271.5,1.2c-18.3,0-38.5,0.2-54.4-10.3c-16.4-10.8-23.9-31.8-27.3-50.3
			c-1.6-8.6-4.5-21.5,1.7-29c4.8-5.8,12.5-9.2,18.6-13.3c8.8-6,17.7-11.9,26.8-17.5c6.7-4.2,13.7-7.4,20.8-10.8
			c6.1-2.9,12.7-6,17.2-11.2c-1.2-1.2-2.4-2.4-3.5-3.5c-6.3,8.1-8.6,17.9-6.3,27.9c0.4,1.7,3,2.6,4.2,1.1c8-10,16.1-19.9,24.1-29.9
			c-1.4-0.6-2.8-1.2-4.3-1.8c1.4,11.5,1.8,23.1,1.1,34.7c-0.2,3.1,3.9,3.1,4.9,0.7c4-9.6,10.1-18,17.8-24.9
			c-1.3-0.2-2.6-0.3-3.9-0.5c4.3,7.5,8.6,15,12.8,22.6c1.3,2.3,4.4,1.1,4.7-1.3c0.9-8.7,12.1-11.9,19.4-9.4
			c9.6,3.2,15.3,13.2,20.2,21.3c0.9,1.5,3.5,1.8,4.3,0c11.2-24.1,28.1-45,49.5-60.8c-1.2-0.5-2.4-1-3.7-1.5
			c4.8,22.8,9.5,45.6,14.3,68.4c0.5,2.4,4.3,2.4,4.8,0c2.2-10.8,6-21,11.6-30.5c-1.4,0-2.9,0-4.3,0c7.5,9.7,15,19.4,22.4,29.2
			c1.2,1.5,3.1,1.6,4.3,0c5.9-8.4,11.9-16.7,17.8-25.1c-1.3,0.2-2.6,0.3-3.9,0.5c6.9,5.3,13.7,10.6,20.6,15.9c0.8,0.6,2.1,1.1,3,0.4
			c4.1-2.9,8.1-5.8,12.2-8.7c-0.8,0-1.7,0-2.5,0c4.8,3.5,9.7,6.9,14.5,10.4c1.5,1,3.1-0.2,3.7-1.5c5.9-14.3,8-29.7,6.2-45
			c-1.4,0.6-2.8,1.2-4.3,1.8c7.8,8.6,12.6,19,14.3,30.5c0.3,2.1,3.7,2.4,4.6,0.6c6.7-13.5,11.5-27.8,14.4-42.6c-1.6,0-3.2,0-4.8,0
			c6.5,16.9,15.2,32.8,26.1,47.2c1,1.3,3.5,1.9,4.3,0c5.9-13.5,13.8-25.8,23.6-36.8c-1.4-0.4-2.8-0.7-4.2-1.1
			c2.6,9.1,5.3,18.3,7.9,27.4c0.6,2.3,3.3,2.2,4.6,0.6c5.5-7.1,10.9-14.2,16.4-21.3c-1.4,0-2.9,0-4.3,0c8.1,10.9,13.2,23.2,15,36.6
			c0.4,2.8,4,2,4.8,0c8.8-21.7,26.3-39.2,48-47.9c-0.9-1.2-1.9-2.4-2.8-3.7c-7,11-9.5,23.7-7.3,36.5c0.3,2.1,3.7,2.5,4.6,0.6
			c3.3-7.3,7.7-13.7,13.3-19.5c-1.2,0-2.4,0-3.5,0c5.4,6.8,10.8,13.5,16.2,20.3c0.9,1.1,2.6,0.8,3.5,0c7.2-6.8,20.5-3.3,23.4,6.1
			c0.7,2.1,3.4,2.4,4.6,0.6c5.7-8.7,8.6-18.7,8.3-29.2c-1.3,0.7-2.5,1.4-3.8,2.2c16.3,8.8,30.3,21.3,40.7,36.7
			c1.1,1.7,4.1,1.6,4.6-0.6c3.4-15.4,11-29.2,22.4-40.1c-1.4-0.4-2.8-0.7-4.2-1.1c1.6,5.5,3.2,11.1,4.9,16.6
			c0.5,1.7,2.2,2.2,3.7,1.5c5.4-2.5,10.8-5.1,16.2-7.6c-1-0.1-2-0.3-3-0.4c3.2,2.8,5.1,6,6,10.2c0.4,1.8,2.9,2.4,4.2,1.1
			c10.4-10.8,23-18.9,37.1-24c-0.8-1.4-1.6-2.8-2.4-4.2c-7.5,8.3-11.6,18.5-11.6,29.7c0,2.2,2.7,3.3,4.3,1.8
			c3.5-3.3,7.3-5.7,11.9-7.2c-0.9-0.4-1.9-0.8-2.8-1.1c3.4,4.9,6.8,9.9,10.3,14.8c0.7,1.1,2.2,1.7,3.4,0.9c4.2-2.8,8.4-5.6,12.5-8.3
			c-0.8,0-1.7,0-2.5,0c4.3,2.8,7.7,6.2,10.4,10.5c1.1,1.8,4,1.6,4.6-0.6c3.2-12.1,6.4-24.2,9.6-36.3c-1.5,0.2-3,0.4-4.6,0.6
			c7.3,11.1,12.8,23,16.5,35.8c0.5,1.7,2.9,2.5,4.2,1.1c10.9-11.7,21.7-23.3,32.6-35c-1.4-0.8-2.8-1.6-4.2-2.4
			c-4.7,14.1-5.8,28.9-3.3,43.5c0.3,1.8,3,2.5,4.2,1.1c11.8-14.2,20.9-30.2,27.1-47.6c-1.6-0.2-3.3-0.4-4.9-0.7
			c0.8,14.4,3.6,28.4,8.4,41.9c0.6,1.8,3.6,2.7,4.6,0.6c4.7-10.2,9.3-20.4,14-30.5c-1.6-0.4-3.1-0.8-4.7-1.3
			c0.6,5.1,1.2,10.2,1.8,15.3c0.2,1.6,1.4,2.9,3.2,2.4c5.8-1.6,10.8-4.6,14.9-9.1c-1.2,0-2.4,0-3.5,0c2.5,3.2,4.9,6.3,7.4,9.5
			c1,1.2,3.3,0.8,3.9-0.5c7.8-15.4,15.6-30.9,23.4-46.3c1.4-2.9-2.9-5.4-4.3-2.5c-7.8,15.4-15.6,30.9-23.4,46.3
			c1.3-0.2,2.6-0.3,3.9-0.5c-2.5-3.2-4.9-6.3-7.4-9.5c-0.8-1-2.7-0.9-3.5,0c-3.5,3.8-7.7,6.4-12.7,7.8c1.1,0.8,2.1,1.6,3.2,2.4
			c-0.6-5.1-1.2-10.2-1.8-15.3c-0.3-2.1-3.5-3.8-4.7-1.3c-4.7,10.2-9.3,20.4-14,30.5c1.5,0.2,3,0.4,4.6,0.6
			c-4.7-13.1-7.5-26.7-8.3-40.6c-0.2-2.9-4-3.3-4.9-0.7c-5.9,16.5-14.6,31.9-25.8,45.4c1.4,0.4,2.8,0.7,4.2,1.1
			c-2.3-13.8-1.2-27.6,3.3-40.9c0.8-2.4-2.5-4.2-4.2-2.4c-10.9,11.7-21.7,23.3-32.6,35c1.4,0.4,2.8,0.7,4.2,1.1
			c-3.8-13.1-9.5-25.5-17-37c-1.1-1.7-4-1.6-4.6,0.6c-3.2,12.1-6.4,24.2-9.6,36.3c1.5-0.2,3-0.4,4.6-0.6c-3.2-5-7.2-9-12.2-12.3
			c-0.7-0.5-1.8-0.5-2.5,0c-4.2,2.8-8.4,5.6-12.5,8.3c1.1,0.3,2.3,0.6,3.4,0.9c-3.4-4.9-6.8-9.9-10.3-14.8c-0.6-0.9-1.7-1.5-2.8-1.1
			c-5.4,1.8-10,4.6-14.1,8.5c1.4,0.6,2.8,1.2,4.3,1.8c0.1-9.8,3.6-18.9,10.2-26.2c1.6-1.7,0.1-5.1-2.4-4.2
			c-14.9,5.4-28.3,13.9-39.3,25.3c1.4,0.4,2.8,0.7,4.2,1.1c-1.1-4.9-3.5-9-7.3-12.4c-0.9-0.8-2-0.9-3-0.4
			c-5.4,2.5-10.8,5.1-16.2,7.6c1.2,0.5,2.4,1,3.7,1.5c-1.6-5.5-3.2-11.1-4.9-16.6c-0.5-1.8-2.8-2.4-4.2-1.1
			c-11.9,11.5-20.1,26.1-23.6,42.3c1.5-0.2,3-0.4,4.6-0.6c-10.9-16.1-25.4-29.2-42.5-38.5c-1.6-0.9-3.8,0.2-3.8,2.2
			c0.3,9.6-2.3,18.6-7.6,26.6c1.5,0.2,3,0.4,4.6,0.6c-4.1-13.1-21.8-17.7-31.8-8.3c1.2,0,2.4,0,3.5,0c-5.4-6.8-10.8-13.5-16.2-20.3
			c-0.8-1.1-2.7-0.9-3.5,0c-5.9,6-10.6,12.8-14.1,20.5c1.5,0.2,3,0.4,4.6,0.6c-1.9-11.5,0.6-22.9,6.8-32.7c1.1-1.7-0.8-4.5-2.8-3.7
			c-23.5,9.5-42,28-51.5,51.4c1.6,0,3.2,0,4.8,0c-1.9-13.8-7.3-26.7-15.6-37.8c-1.2-1.6-3.1-1.6-4.3,0c-5.5,7.1-10.9,14.2-16.4,21.3
			c1.5,0.2,3,0.4,4.6,0.6c-2.6-9.1-5.3-18.3-7.9-27.4c-0.5-1.7-2.9-2.5-4.2-1.1c-10,11.3-18.2,24-24.3,37.9c1.4,0,2.9,0,4.3,0
			c-10.6-14.1-19.3-29.5-25.6-46c-0.8-2.1-4.3-2.7-4.8,0c-2.8,14.4-7.4,28.3-13.9,41.4c1.5,0.2,3,0.4,4.6,0.6
			c-1.8-12.3-7.3-23.5-15.6-32.7c-1.4-1.5-4.5-0.4-4.3,1.8c1.8,15-0.2,29.8-6,43.7c1.2-0.5,2.4-1,3.7-1.5
			c-4.8-3.5-9.7-6.9-14.5-10.4c-0.7-0.5-1.9-0.5-2.5,0c-4.1,2.9-8.1,5.8-12.2,8.7c1,0.1,2,0.3,3,0.4c-6.9-5.3-13.7-10.6-20.6-15.9
			c-1.3-1-2.9-0.9-3.9,0.5c-5.9,8.4-11.9,16.7-17.8,25.1c1.4,0,2.9,0,4.3,0c-7.5-9.7-15-19.4-22.4-29.2c-1.1-1.4-3.3-1.8-4.3,0
			c-5.8,9.9-9.9,20.5-12.1,31.7c1.6,0,3.2,0,4.8,0c-4.8-22.8-9.5-45.6-14.3-68.4c-0.3-1.5-2.4-2.4-3.7-1.5
			c-22.1,16.2-39.8,37.7-51.3,62.6c1.4,0,2.9,0,4.3,0c-6.2-10.3-14.2-23-27.4-24.5c-9.9-1.1-20.5,4.6-21.5,15.1
			c1.6-0.4,3.1-0.8,4.7-1.3c-4.3-7.5-8.6-15-12.8-22.6c-0.8-1.5-2.7-1.6-3.9-0.5c-8.5,7.5-14.8,16.6-19.1,27.1
			c1.6,0.2,3.3,0.4,4.9,0.7c0.6-11.6,0.3-23.2-1.1-34.7c-0.2-1.9-2.7-3.7-4.3-1.8c-8,10-16.1,19.9-24.1,29.9
			c1.4,0.4,2.8,0.7,4.2,1.1c-1.9-8.1-0.1-16.5,5-23.1c1.9-2.5-1.4-6-3.5-3.5c-5.1,5.9-13.1,9-20,12.2c-7.9,3.7-15.2,7.8-22.6,12.5
			c-8.8,5.6-17.3,11.7-26.1,17.3c-5.9,3.7-12.6,7.2-16.5,13.2c-4.6,7.1-3.2,16.5-2.2,24.4c1.3,10.1,3.7,20.1,7.5,29.5
			c6.7,16.6,17.7,30.3,34.9,36.6c18.4,6.6,38.9,5.2,58.1,5.2c23.3-0.1,46.6-0.1,69.9-0.2c47.2-0.2,94.5-0.4,141.7-0.7
			c93.8-0.6,187.6-1.4,281.5-2.4c93.8-1,187.6-2.3,281.4-3.9c11.5-0.2,23.3,0.3,34.8-0.6c8.4-0.7,11.4-6.6,13.1-14.2
			c4.9-21.2,9.6-42.4,12.2-64c1.3-10.5,2.5-21.5,1.9-32.1c-0.4-7.4-4-12.9-8.9-18.2c-8.5-9.1-16-19.1-22.2-29.9
			c-1.9-3.2-6.4-9.6-4.8-13.5C856.8,515.1,852,513.8,850.8,516.7z"/>
	</g>
</g>
</svg>
